<svg width="930" height="930" viewBox="0 0 930 930" fill="none" xmlns="http://www.w3.org/2000/svg">
<g clip-path="url(#clip0)">
<g clip-path="url(#clip1)">
<path d="M743.9 611C701.6 614 701.1 571.3 644.8 561.3C498.8 535.4 507.5 834.4 318.6 882.6C308.7 885.1 305.8 882.8 314.8 878.2C415.7 827 468.4 717.1 478.7 608.2C486.5 525.3 473.6 436.1 388 400.7C285.6 358.4 173.5 386.8 80 437C-27.8 494.8 -148 615.5 -280.1 598.5C-281.3 598.3 -282.5 598.2 -283.6 598C-333.6 590.5 -375.6 518.4 -385.2 491.3C-394.5 454.6 -369 444.4 -379.4 441.9C-402.1 436.6 -443.3 528.1 -408.6 575.4C-360.6 640.7 -361.6 676.4 -350.1 694C-344.7 702.2 -333.9 711 -318.7 699.8C-308.4 692.2 -286.7 639.4 -200.7 653.2C-151.4 661.1 154.1 704.6 274.9 600C274.9 600 258.7 686.1 95.4 710.8C-1.39998 725.5 -102.7 774.8 -97.6 876.9C-92.9 969.7 12.9 1014.3 104.2 1023.4C118.4 1024.8 132.7 1025.5 147 1025.7C275.3 1027.1 518 1000 634 950.6C487.2 1078 592.7 1174.7 541.3 1194.8C465.8 1098.3 301.6 1136.6 219 1216.1C215.7 1219.3 218.2 1223.8 221.1 1221.6C229.2 1215.5 234.3 1211.9 239.6 1209.2C244.9 1206.5 249.2 1209.1 246.8 1212.3C245.3 1214.3 219.9 1230.2 217 1233.7C214.1 1237.2 217.1 1242.5 222.8 1238.6C228.6 1234.7 244.1 1225.8 247.1 1223.9C252.4 1220.7 256.2 1223.6 253.8 1226.8C252.3 1228.8 228.3 1245.3 224.3 1248C220.3 1250.8 222.4 1258 227.8 1254.7C233.1 1251.4 255 1236.4 258.9 1235.1C264.6 1233.2 266.4 1238.6 262.7 1240.8C260.7 1242 249.5 1249.3 235.5 1258C229.6 1261.7 231.9 1268.1 238 1265.1C265.6 1251.5 289.6 1231 318.4 1219.7C341.9 1210.5 368 1210.2 392.1 1218.8C418.4 1228.2 437.7 1247.9 460 1263.8C538.8 1320.1 641.9 1296.2 707.4 1232.2C783.3 1158 815.7 1012.8 777.6 935.2C932.2 1008 971.7 951.5 972.4 888.2C972.9 840 936.4 820.2 898.9 823.1C881.1 824.5 880.6 813.2 868.9 808.1C858 803.4 857.3 814.3 855.3 822.3C851.6 821.2 846.7 819.4 844.5 815.9C838.6 811.7 838.4 820 838.4 820C835.8 819.6 835.5 816.8 831.7 817.6C828.2 818.3 825 826.6 820.5 826.6C796 826.6 787.5 844.7 809.1 873.2C807.2 870.7 718.8 857.9 733.6 809C754.6 739.3 875.4 793.7 946.4 721.8C999.8 667.8 973.3 527.3 1024.9 516.3C1075.4 505.6 1078.7 584 1139 644.5C1210.2 715.9 1332.7 763.7 1283 817.5C1267.8 831.7 1237.4 852.3 1219.2 878C1179.4 885 1149.3 867.3 1148.7 874.7C1148.3 880 1187.2 892.7 1208.4 891.9C1212.9 892 1213.7 898.1 1208.7 898.8C1173.6 901.9 1148 886.9 1147.2 893.6C1146.3 900.5 1183.2 910.5 1206.6 910.8C1212.4 910.9 1214 917.9 1206.3 917.7C1172.7 916.8 1146.5 906 1145.6 912.7C1144.6 920.2 1187.5 929.1 1208.1 928.3C1212 927.7 1212.3 932.5 1208.4 933C1179.2 937.1 1160.9 928.1 1160.5 933.6C1160.1 939 1206.7 947.8 1241.1 931.9C1538 794.7 1164.8 356.6 949.6 374.6C835.7 384.1 819.5 605.6 743.9 611Z" fill="#9E2D34"/>
</g>
</g>
<defs>
<clipPath id="clip0">
<rect width="930" height="930" fill="white"/>
</clipPath>
<clipPath id="clip1">
<rect width="1773.2" height="921.5" fill="white" transform="translate(-422 374)"/>
</clipPath>
</defs>
</svg>
