<svg width="1920" height="1000" viewBox="0 0 1920 1000" fill="none" xmlns="http://www.w3.org/2000/svg">
<g clip-path="url(#clip0)">
<g clip-path="url(#clip1)">
<path d="M2004.22 -62.1113C1981.68 -143.703 1862.37 -282.747 1484.29 -259.406C1464.94 -258.209 1445.79 -254.619 1426.83 -250.429C1355.61 -235.069 1283.18 -199.36 1242.09 -136.72C1238.69 -131.733 1220.54 -104.802 1226.12 -101.81C1232.91 -98.2189 1239.69 -122.956 1269.22 -148.291C1273.21 -151.682 1277.2 -147.692 1273.21 -144.301C1251.86 -123.355 1227.92 -73.0832 1233.91 -68.6944C1241.09 -63.3082 1252.06 -101.411 1284.58 -131.733C1289.17 -136.122 1294.56 -132.93 1289.17 -127.544C1269.22 -107.595 1248.67 -57.7225 1254.26 -53.5332C1261.44 -48.147 1267.62 -89.0424 1304.13 -115.774C1309.12 -120.362 1313.51 -117.37 1309.72 -112.782C1290.37 -92.6332 1269.02 -44.3567 1275.6 -41.9628C1284.58 -38.5715 1279.39 -62.7098 1329.27 -109.59C1355.81 -134.526 1387.13 -154.275 1423.04 -160.859C1483.1 -171.831 1541.55 -148.291 1594.82 -123.155C1599.81 -120.761 1605 -118.367 1609.99 -115.973C1693.78 -76.2751 1779.97 -29.395 1823.86 -30.592C1784.56 16.2881 1754.83 71.5467 1727.5 126.207C1701.76 177.875 1686.6 234.131 1661.86 286.197C1643.1 325.497 1612.98 376.367 1564.1 379.159C1526.39 381.354 1486.69 341.655 1502.85 302.157C1516.61 268.443 1553.12 254.878 1578.66 230.54C1615.97 195.031 1630.93 135.184 1603.6 89.5007C1584.85 58.1809 1546.34 42.0222 1510.83 41.0248C1464.54 39.8278 1436.61 63.7666 1418.85 104.462C1412.87 118.227 1404.89 132.391 1391.52 138.974C1388.13 140.57 1383.94 142.166 1382.54 145.557C1381.14 148.949 1382.14 152.938 1385.93 155.133C1388.53 156.729 1391.72 157.726 1394.31 159.123C1392.12 163.91 1387.33 167.501 1381.94 168.698C1372.37 171.89 1393.51 185.854 1393.51 185.854C1391.72 189.245 1380.75 188.847 1379.95 194.233C1379.15 199.22 1390.12 209.394 1385.14 213.583C1358.2 236.524 1396.31 258.269 1441.2 246.499C1437.01 254.479 1422.84 314.924 1332.66 301.159C1026.61 254.878 1200.39 708.118 1030.6 686.972C1205.37 -665.966 348.87 178.473 64.3664 133.987C-78.8831 111.644 -70.7031 -19.4205 -72.4987 -70.0909C-72.8978 -82.0603 -83.6714 -75.4771 -90.2553 -66.3006C-111.404 -36.1777 -135.944 -10.643 -115.394 42.8202C-98.4353 87.1069 -98.8343 117.03 -90.8538 179.67C-87.2626 207.399 -72.4987 217.972 -59.5305 219.767C-29.8032 223.757 -28.8056 203.808 7.70504 203.409C23.8655 203.21 47.6074 205.205 82.3225 215.379C534.416 348.438 715.972 140.57 716.172 139.573C645.545 344.648 657.914 487.083 664.099 490.076C753.281 532.367 811.937 576.455 844.458 629.519C723.753 521.396 235.348 316.52 105.067 352.428C68.7557 362.402 50.4006 402.5 39.2279 435.017C21.0723 488.081 14.2889 544.935 9.10162 600.393C-3.0686 726.67 -0.474931 853.944 -14.0417 980.022C-16.8349 1007.15 -20.2266 1034.68 -27.8081 1061.01C-45.7642 1123.65 -124.771 1144.4 -181.831 1155.37C-203.578 1159.56 -225.724 1161.56 -247.87 1159.36C-251.66 1158.96 -268.419 1153.78 -271.612 1156.17C-289.368 1169.74 -250.862 1219.41 -184.026 1223C-156.493 1224.4 -92.2504 1207.24 -64.9173 1204.25C-37.5842 1201.46 -17.0344 1216.82 7.70504 1218.41C52.1962 1221.4 45.6123 1191.28 45.8118 1158.56C46.0113 1138.02 56.5855 1120.86 66.162 1103.11C96.8869 1046.05 129.208 989.996 155.344 930.548C215.197 795.295 247.917 646.675 226.37 498.654C331.513 706.322 454.013 944.313 705.398 1023.31C997.683 1115.08 1321.49 1079.17 1615.97 826.016C1785.16 680.389 2066.27 163.312 2004.22 -62.1113Z" fill="#003436"/>
</g>
</g>
<defs>
<clipPath id="clip0">
<rect width="1920" height="1000" fill="white"/>
</clipPath>
<clipPath id="clip1">
<rect width="2289" height="1485" fill="white" transform="translate(-276 -262)"/>
</clipPath>
</defs>
</svg>
