<svg width="1920" height="1000" viewBox="0 0 1920 1000" fill="none" xmlns="http://www.w3.org/2000/svg">
<g clip-path="url(#clip0)">
<g clip-path="url(#clip1)">
<path d="M-194.478 1220.33C-125.973 1193.15 -50.5789 1172.47 4.3401 1192.38C76.4811 1218.61 113.987 1216.12 125.659 1175.72C131.017 1156.77 126.425 1129.96 122.215 1102.2C117.431 1070.6 113.221 1037.67 125.659 1013.93C125.659 1013.93 126.234 1171.51 604.431 1245.8C751.775 1268.59 866.971 1264.56 952.889 1250.97C1037.66 1237.57 1127.02 1183.57 1184.43 1117.13C1278.58 1007.8 1446.59 657.795 1691.9 630.606C1691.9 630.606 1507.25 785.697 1613.64 1072.9C1599.48 1074.05 1585.13 1075.39 1570.97 1077.11C1551.26 1079.41 1531.55 1082.48 1512.03 1085.92C1488.88 1089.94 1465.91 1094.92 1443.14 1100.67C1418.65 1106.98 1394.35 1114.26 1370.43 1122.88C1346.32 1131.68 1322.78 1141.83 1300.01 1154.28C1278.19 1166.15 1257.14 1179.74 1238.2 1196.21C1220.21 1211.72 1204.52 1230.1 1191.13 1250.2C1159.55 1297.11 1150.18 1360.68 1160.51 1364.7C1169.7 1368.34 1170.84 1339.05 1187.87 1298.26C1190.17 1292.9 1196.1 1293.48 1194.76 1299.22C1191.89 1329.47 1184.81 1384.43 1194 1384.43C1205.1 1384.43 1201.08 1351.88 1215.81 1302.86C1217.73 1294.43 1224.61 1295.2 1223.66 1303.62C1220.79 1334.83 1217.15 1385.38 1225.76 1385.38C1236.86 1385.38 1232.84 1352.64 1247.19 1304.2C1248.53 1296.73 1255.04 1296.54 1254.85 1303.24C1251.98 1334.45 1248.15 1381.55 1256.95 1381.55C1269.2 1381.55 1260.59 1344.79 1280.68 1289.07C1337.71 1258.25 1394.92 1195.25 1394.92 1195.25C1443.91 1224.74 1720.22 1340.39 1812.84 1164.23C1847.09 1099.33 1898.95 982.146 1964.59 812.311C2030.22 642.285 2039.41 472.26 1929.18 428.796C1873.12 406.777 1768.64 452.921 1722.52 391.076C1679.08 332.869 1741.08 296.681 1781.27 262.982C1823.56 227.56 1853.6 157.291 1814.75 104.445C1788.35 68.4484 1722.33 47.961 1681.38 70.5546C1647.7 89.1272 1641.96 135.272 1607.52 152.695C1593.55 159.78 1608.66 170.119 1617.08 176.821C1613.64 180.65 1609.81 176.821 1604.65 178.544C1595.46 181.99 1612.68 201.903 1612.68 201.903C1610.77 204.967 1599.48 197.5 1598.52 202.478C1597.57 207.073 1608.28 223.157 1603.69 226.794C1578.05 246.133 1614.6 271.024 1652.87 259.919C1522.55 477.046 1149.6 52.5564 1197.63 475.323C1211.79 600.353 1163.95 624.479 1163.95 624.479C1163.95 624.479 1094.11 276.96 948.297 121.486C494.976 -361.594 -45.6037 -50.8377 -40.4371 276.768C-37.7581 455.602 174.455 804.461 1.85247 1031.93C-30.4866 1074.24 -97.461 1088.22 -134.201 1099.33C-196.775 1118.28 -237.151 1172.47 -264.514 1180.89C-299.532 1191.61 -307.187 1166.53 -321.347 1173.62C-355.026 1191.04 -273.891 1251.74 -194.478 1220.33ZM239.516 779.378C285.25 697.237 351.076 550.38 367.533 406.585C485.982 565.123 680.208 663.347 802.292 703.939C924.377 744.531 820.471 927.959 701.065 840.649C459.001 663.347 310.318 720.597 239.516 779.378Z" fill="#EDAC2E"/>
</g>
</g>
<defs>
<clipPath id="clip0">
<rect width="1920" height="1000" fill="white"/>
</clipPath>
<clipPath id="clip1">
<rect width="2342" height="1513" fill="white" transform="translate(-329 -128)"/>
</clipPath>
</defs>
</svg>
